<svg version="1.1" id="id_svgCanvas" xmlns="http://www.w3.org/2000/svg" xmlns:xlink="http://www.w3.org/1999/xlink" x="0px" y="0px" width="32px" height="32px" viewBox="0 0 32 32"  xml:space="preserve" preserveAspectRatio="none">
<path d="M11.25,8.5c0,0.414-0.336,0.75-0.75,0.75S9.75,8.914,9.75,8.5s0.336-0.75,0.75-0.75S11.25,8.086,11.25,8.5z M10.5,19.75
	c-0.414,0-0.75,0.336-0.75,0.75s0.336,0.75,0.75,0.75s0.75-0.336,0.75-0.75S10.914,19.75,10.5,19.75z M10.5,11.75
	c-0.414,0-0.75,0.336-0.75,0.75s0.336,0.75,0.75,0.75s0.75-0.336,0.75-0.75S10.914,11.75,10.5,11.75z M10.5,23.75
	c-0.414,0-0.75,0.336-0.75,0.75s0.336,0.75,0.75,0.75s0.75-0.336,0.75-0.75S10.914,23.75,10.5,23.75z M17.5,8H13v1h5.5L17.5,8z
	 M10.5,15.75c-0.414,0-0.75,0.336-0.75,0.75s0.336,0.75,0.75,0.75s0.75-0.336,0.75-0.75S10.914,15.75,10.5,15.75z M27.846,3.857
	L26,5.704V28.5c0,0.828-0.672,1.5-1.5,1.5h-17C6.671,30,6,29.328,6,28.5v-25C6,2.672,6.671,2,7.5,2h17C25.328,2,26,2.672,26,3.5
	v0.789l1.139-1.139L27.846,3.857z M25,3.5C25,3.224,24.776,3,24.5,3h-17C7.224,3,7,3.224,7,3.5v25C7,28.776,7.224,29,7.5,29h17
	c0.276,0,0.5-0.224,0.5-0.5V6.704l-3.518,3.518l-2.829-2.829l0.708-0.707l2.121,2.121L25,5.289V3.5z M13,13h9v-1h-9V13z M13,25h9v-1
	h-9V25z M13,17h9v-1h-9V17z M13,21h9v-1h-9V21z" style="fill: rgb(222, 220, 217);"></path>
</svg>